<svg width="1024" height="1024" xmlns="http://www.w3.org/2000/svg" class="icon">
 <defs>
  <style type="text/css">@font-face { font-family: feedback-iconfont; src: url("//at.alicdn.com/t/font_1031158_u69w8yhxdu.woff2?t=1630033759944") format("woff2"), url("//at.alicdn.com/t/font_1031158_u69w8yhxdu.woff?t=1630033759944") format("woff"), url("//at.alicdn.com/t/font_1031158_u69w8yhxdu.ttf?t=1630033759944") format("truetype"); }</style>
 </defs>
 <g>
  <title>background</title>
  <rect fill="none" id="canvas_background" height="402" width="582" y="-1" x="-1"/>
 </g>
 <g>
  <title>Layer 1</title>
  <path id="svg_1" fill="#338aff" d="m192,960l640,0l0,64l-640,0l0,-64z"/>
  <path id="svg_2" fill="#338aff" d="m384,768l256,0l0,256l-256,0l0,-256zm576,-768l-896,0a64,64 0 0 0 -64,64l0,640a64,64 0 0 0 64,64l896,0a64,64 0 0 0 64,-64l0,-640a64,64 0 0 0 -64,-64zm0,704l-896,0l0,-640l896,0l0,640z"/>
  <path id="svg_3" fill="#338aff" d="m128,128l768,0l0,512l-768,0l0,-512z"/>
  <path stroke="null" id="svg_4" d="m-21.674532,1041.595025l0,-1085.718607l730.615218,1085.718607l-730.615218,0z" fill-opacity="null" stroke-opacity="null" stroke-width="null" fill="#fff"/>
 </g>
</svg>